<?xml version="1.0" encoding="UTF-8" standalone="no"?>
<svg
   id="Capa_2"
   viewBox="0 0 483.36701 264.83"
   version="1.1"
   sodipodi:docname="eosc-white-no-bg.svg"
   inkscape:version="1.2.2 (732a01da63, 2022-12-09)"
   width="483.367"
   height="264.82999"
   xmlns:inkscape="http://www.inkscape.org/namespaces/inkscape"
   xmlns:sodipodi="http://sodipodi.sourceforge.net/DTD/sodipodi-0.dtd"
   xmlns="http://www.w3.org/2000/svg"
   xmlns:svg="http://www.w3.org/2000/svg">
  <defs
     id="defs178" />
  <sodipodi:namedview
     id="namedview176"
     pagecolor="#ffffff"
     bordercolor="#000000"
     borderopacity="0.25"
     inkscape:showpageshadow="2"
     inkscape:pageopacity="0.0"
     inkscape:pagecheckerboard="0"
     inkscape:deskcolor="#d1d1d1"
     showgrid="false"
     inkscape:zoom="0.76136344"
     inkscape:cx="357.25382"
     inkscape:cy="125.43287"
     inkscape:window-width="1350"
     inkscape:window-height="1230"
     inkscape:window-x="4138"
     inkscape:window-y="120"
     inkscape:window-maximized="0"
     inkscape:current-layer="Capa_2" />
  <g
     id="g154"
     transform="matrix(1.2196377,0,0,1.2196377,-341.70588,-30.18041)">
    <path
       d="m 477.46,137.82 c 0.98,-0.85 1.47,-1.93 1.47,-3.23 -0.08,-4.64 -0.94,-8.79 -2.56,-12.45 -1.62,-3.66 -3.78,-6.83 -6.46,-9.52 -2.69,-2.68 -5.78,-4.72 -9.28,-6.1 -3.5,-1.38 -7.12,-2.07 -10.86,-2.07 -5.04,0 -9.82,1.32 -14.34,3.97 -4.52,2.64 -8.18,6.47 -10.98,11.47 -2.81,5 -4.21,11.04 -4.21,18.13 0,6.34 1.34,11.94 4.03,16.78 2.69,4.84 6.47,8.64 11.35,11.41 4.88,2.77 10.62,4.15 17.21,4.15 4.39,0 8.52,-0.94 12.39,-2.81 3.86,-1.87 6.98,-4.07 9.34,-6.59 1.3,-1.14 1.95,-2.4 1.95,-3.78 0,-1.14 -0.41,-2.12 -1.22,-2.93 -0.82,-0.81 -1.79,-1.22 -2.93,-1.22 -1.06,0 -2.12,0.37 -3.17,1.1 -1.06,1.14 -2.34,2.26 -3.85,3.36 -1.51,1.1 -3.32,2.01 -5.43,2.75 -2.11,0.73 -4.59,1.1 -7.44,1.1 -4.56,0 -8.55,-1.04 -11.96,-3.11 -3.42,-2.07 -6.08,-4.9 -8,-8.48 -1.66,-3.11 -2.59,-6.65 -2.82,-10.62 h 44.37 c 1.3,0 2.44,-0.43 3.42,-1.28 m -41.43,-18.73 c 1.91,-1.87 4.07,-3.25 6.47,-4.15 2.4,-0.89 4.82,-1.34 7.26,-1.34 3.01,0 5.88,0.65 8.61,1.95 2.73,1.3 5.04,3.16 6.95,5.56 1.91,2.4 2.99,5.27 3.23,8.6 v 0.98 h -38.34 c 0.29,-1.53 0.67,-2.97 1.17,-4.27 1.18,-3.01 2.73,-5.45 4.64,-7.32"
       style="fill:#ffffff"
       id="path146" />
    <path
       d="m 553.49,137.39 c 0,6.34 -1.4,12.01 -4.21,16.96 -2.81,4.97 -6.59,8.87 -11.35,11.72 -4.76,2.85 -10.11,4.27 -16.05,4.27 -5.94,0 -11.31,-1.42 -16.11,-4.27 -4.8,-2.85 -8.6,-6.75 -11.41,-11.72 -2.81,-4.96 -4.21,-10.62 -4.21,-16.96 0,-6.34 1.4,-12 4.21,-16.96 2.81,-4.96 6.61,-8.87 11.41,-11.72 4.8,-2.85 10.17,-4.27 16.11,-4.27 5.94,0 11.29,1.42 16.05,4.27 4.76,2.85 8.54,6.76 11.35,11.72 2.81,4.96 4.21,10.62 4.21,16.96 m -9.89,0 c 0,-4.72 -0.96,-8.85 -2.87,-12.39 -1.91,-3.54 -4.52,-6.34 -7.81,-8.42 -3.3,-2.08 -6.98,-3.11 -11.04,-3.11 -4.06,0 -7.87,1.04 -11.17,3.11 -3.29,2.07 -5.92,4.88 -7.87,8.42 -1.95,3.54 -2.93,7.67 -2.93,12.39 0,4.72 0.98,8.75 2.93,12.33 1.96,3.58 4.58,6.41 7.87,8.48 3.29,2.07 7.02,3.11 11.17,3.11 4.15,0 7.75,-1.04 11.04,-3.11 3.29,-2.07 5.9,-4.9 7.81,-8.48 1.91,-3.58 2.87,-7.69 2.87,-12.33"
       style="fill:#ffffff"
       id="path148" />
    <path
       d="m 564.47,159.11 c -0.65,-1.06 -0.96,-2.18 -0.92,-3.36 0.04,-1.18 0.71,-2.21 2.02,-3.11 0.89,-0.57 1.89,-0.81 2.99,-0.73 1.1,0.08 2.09,0.61 2.99,1.59 2.28,2.68 4.88,4.82 7.81,6.4 2.93,1.59 6.51,2.38 10.74,2.38 1.87,-0.08 3.8,-0.41 5.8,-0.98 1.99,-0.57 3.66,-1.57 5,-2.99 1.35,-1.42 2.02,-3.31 2.02,-5.68 0,-2.37 -0.69,-4.09 -2.07,-5.43 -1.39,-1.34 -3.2,-2.44 -5.43,-3.29 -2.24,-0.86 -4.62,-1.6 -7.14,-2.26 -2.68,-0.73 -5.33,-1.54 -7.93,-2.44 -2.6,-0.89 -4.94,-2.05 -7.02,-3.48 -2.07,-1.42 -3.74,-3.21 -5,-5.37 -1.26,-2.16 -1.89,-4.82 -1.89,-8 0,-3.66 0.99,-6.83 2.99,-9.52 1.99,-2.68 4.65,-4.76 7.99,-6.22 3.33,-1.47 7.04,-2.2 11.1,-2.2 2.28,0 4.66,0.27 7.14,0.79 2.48,0.53 4.9,1.43 7.26,2.69 2.36,1.26 4.43,2.99 6.23,5.19 0.73,0.82 1.14,1.83 1.22,3.05 0.08,1.22 -0.45,2.32 -1.59,3.29 -0.9,0.65 -1.89,0.96 -2.99,0.92 -1.1,-0.04 -2.01,-0.43 -2.74,-1.16 -1.79,-2.12 -3.97,-3.72 -6.53,-4.82 -2.56,-1.1 -5.39,-1.65 -8.48,-1.65 -1.87,0 -3.74,0.31 -5.62,0.92 -1.87,0.61 -3.44,1.57 -4.7,2.87 -1.26,1.3 -1.9,3.13 -1.9,5.49 0.08,2.19 0.82,3.99 2.2,5.37 1.38,1.39 3.25,2.5 5.62,3.36 2.36,0.85 4.96,1.69 7.81,2.5 2.6,0.65 5.1,1.4 7.5,2.26 2.4,0.85 4.58,1.97 6.53,3.35 1.95,1.39 3.5,3.16 4.64,5.31 1.14,2.16 1.71,4.86 1.71,8.12 0,3.74 -1.06,6.98 -3.17,9.7 -2.12,2.73 -4.9,4.8 -8.36,6.22 -3.46,1.42 -7.18,2.13 -11.16,2.13 -4.48,0 -8.91,-0.83 -13.31,-2.5 -4.39,-1.67 -8.17,-4.58 -11.35,-8.73"
       style="fill:#ffffff"
       id="path150" />
    <path
       d="m 653.93,104.44 c 4.23,0 8.01,0.45 11.35,1.34 3.33,0.9 5.98,2.12 7.93,3.66 1.95,1.54 2.93,3.29 2.93,5.25 0,1.14 -0.37,2.2 -1.1,3.17 -0.73,0.98 -1.75,1.47 -3.05,1.47 -1.06,0 -1.93,-0.22 -2.62,-0.67 -0.69,-0.44 -1.34,-0.98 -1.95,-1.59 -0.61,-0.61 -1.45,-1.2 -2.5,-1.77 -0.98,-0.49 -2.4,-0.92 -4.27,-1.28 -1.87,-0.36 -3.74,-0.55 -5.61,-0.55 -4.48,0 -8.4,1.06 -11.78,3.17 -3.38,2.12 -6.04,4.97 -7.99,8.54 -1.96,3.58 -2.93,7.65 -2.93,12.2 0,4.55 0.93,8.63 2.8,12.21 1.87,3.58 4.48,6.43 7.81,8.54 3.33,2.12 7.2,3.17 11.59,3.17 2.85,0 5.11,-0.25 6.77,-0.73 1.67,-0.49 3.11,-1.06 4.33,-1.71 1.38,-0.81 2.46,-1.63 3.23,-2.44 0.77,-0.82 1.85,-1.22 3.23,-1.22 1.38,0 2.46,0.45 3.23,1.34 0.77,0.9 1.16,1.99 1.16,3.3 0,1.54 -1.02,3.13 -3.05,4.76 -2.03,1.63 -4.8,2.99 -8.3,4.09 -3.5,1.1 -7.41,1.65 -11.71,1.65 -6.19,0 -11.59,-1.44 -16.23,-4.33 -4.64,-2.89 -8.24,-6.83 -10.8,-11.84 -2.56,-5 -3.84,-10.6 -3.84,-16.78 0,-6.18 1.32,-11.75 3.97,-16.72 2.64,-4.96 6.33,-8.91 11.04,-11.84 4.72,-2.93 10.17,-4.39 16.35,-4.39"
       style="fill:#ffffff"
       id="path152" />
  </g>
  <path
     d="m 61.9332,103.63823 c -6.51286,-4.207746 -14.06242,-6.439683 -21.81931,-6.439683 -7.7569,0 -15.31865,2.231937 -21.83152,6.451883 -1.3294,0.86594 -2.18315,2.26853 -2.3539,3.85406 -0.17075,1.62211 0.39028,3.21984 1.53674,4.3663 l 2.18316,2.18315 c 1.03669,1.03669 2.39049,1.57333 3.75648,1.57333 0.95132,0 1.90263,-0.25612 2.75638,-0.78057 4.19555,-2.59782 9.01312,-3.96382 13.94046,-3.96382 4.92734,0 9.7449,1.366 13.94046,3.95163 2.08558,1.29281 4.76878,0.96351 6.52506,-0.78057 l 2.18315,-2.18315 c 1.14646,-1.14646 1.70749,-2.74419 1.53674,-4.35411 -0.17075,-1.58553 -1.02449,-2.98811 -2.3539,-3.85405"
     style="fill:#00828d;stroke-width:1.21964"
     id="path156" />
  <path
     d="m 33.93032,163.64441 c -12.17198,-2.87835 -20.67286,-13.62336 -20.67286,-26.12464 0,-4.95173 1.37819,-9.81808 3.98822,-14.02583 1.23183,-2.01241 0.92692,-4.58584 -0.75618,-6.26894 l -2.18315,-2.18315 c -1.10987,-1.10987 -2.63441,-1.64651 -4.19555,-1.48796 -1.52455,0.15855 -2.87835,0.9879 -3.7077,2.26852 C 2.20755,122.29869 0,129.81166 0,137.51977 c 0,18.75803 13.30625,35.24753 31.6496,39.19915 0.3415,0.0732 0.69519,0.10977 1.04889,0.10977 1.13426,0 2.24413,-0.39028 3.15886,-1.12207 1.21964,-0.9879 1.92703,-2.45147 1.92703,-4.0126 v -3.0491 c 0,-2.3661 -1.62212,-4.47607 -3.84186,-5.00051"
     style="fill:#ff5c80;stroke-width:1.21964"
     id="path158" />
  <path
     d="m 107.08419,97.405886 c -22.12423,0 -40.11388,17.989654 -40.11388,40.113884 l 0.0244,0.18294 -0.0244,0.19515 c -0.17075,12.58666 -9.25705,23.50241 -21.59979,25.95389 -1.6831,0.3293 -2.90273,1.82945 -2.90273,3.53694 v 6.12259 c 0,1.07328 0.47565,2.08558 1.28062,2.78077 0.80496,0.683 1.85385,0.97571 2.87834,0.80496 19.47761,-3.18325 33.61321,-19.83131 33.61321,-39.56505 0,-14.8064 12.03783,-26.84422 26.84423,-26.84422 14.8064,0 26.84422,12.03782 26.84422,26.84422 0,14.80641 -12.03782,26.85643 -26.84422,26.85643 -3.65891,0 -6.63483,2.96372 -6.63483,6.63482 0,3.67111 2.97592,6.63483 6.63483,6.63483 22.12423,0 40.11388,-18.00185 40.11388,-40.11388 0,-22.11203 -17.98965,-40.113882 -40.11388,-40.113882"
     style="fill:#00828d;stroke-width:1.21964"
     id="path160" />
</svg>
